<svg xmlns="http://www.w3.org/2000/svg" xmlns:xlink="http://www.w3.org/1999/xlink" width="1080" zoomAndPan="magnify" viewBox="0 0 810 809.999993" height="1080" preserveAspectRatio="xMidYMid meet" version="1.0"><defs><g/><clipPath id="e7f17eddba"><rect x="0" width="810" y="0" height="799"/></clipPath></defs><g transform="matrix(1, 0, 0, 1, 0, 0.000000000000039746)"><g clip-path="url(#e7f17eddba)"><g fill="#e21a41" fill-opacity="1"><g transform="translate(0.0000035, 634.632167)"><g><path d="M 41.328125 0 L 41.328125 -477.328125 L 228.734375 -477.328125 C 264.828125 -477.328125 295.6875 -470.921875 321.3125 -458.109375 C 346.945312 -445.296875 366.546875 -427.25 380.109375 -403.96875 C 393.671875 -380.6875 400.453125 -353.242188 400.453125 -321.640625 C 400.453125 -290.242188 393.507812 -263.117188 379.625 -240.265625 C 365.738281 -217.410156 345.769531 -199.894531 319.71875 -187.71875 C 293.664062 -175.550781 262.269531 -169.46875 225.53125 -169.46875 L 99.625 -169.46875 L 99.625 -248.59375 L 213.671875 -248.59375 C 232.898438 -248.59375 248.921875 -251.421875 261.734375 -257.078125 C 274.546875 -262.742188 284.207031 -271.019531 290.71875 -281.90625 C 297.238281 -292.800781 300.5 -306.046875 300.5 -321.640625 C 300.5 -337.660156 297.238281 -351.164062 290.71875 -362.15625 C 284.207031 -373.15625 274.546875 -381.59375 261.734375 -387.46875 C 248.921875 -393.34375 232.796875 -396.28125 213.359375 -396.28125 L 139.359375 -396.28125 L 139.359375 0 Z M 308.1875 0 L 193.5 -216.875 L 299.21875 -216.875 L 416.140625 0 Z M 308.1875 0 "/></g></g><g transform="translate(429.919558, 634.632167)"><g><path d="M 180.359375 6.40625 C 131.023438 6.40625 92.15625 -6.566406 63.75 -32.515625 C 35.34375 -58.460938 21.140625 -95.460938 21.140625 -143.515625 L 21.140625 -172.359375 L 117.890625 -172.359375 L 117.890625 -142.5625 C 117.890625 -119.914062 123.441406 -102.71875 134.546875 -90.96875 C 145.648438 -79.226562 160.816406 -73.359375 180.046875 -73.359375 C 199.046875 -73.359375 214.046875 -79.226562 225.046875 -90.96875 C 236.046875 -102.71875 241.546875 -119.914062 241.546875 -142.5625 L 241.546875 -477.328125 L 338.9375 -477.328125 L 338.9375 -143.515625 C 338.9375 -95.460938 324.785156 -58.460938 296.484375 -32.515625 C 268.191406 -6.566406 229.484375 6.40625 180.359375 6.40625 Z M 180.359375 6.40625 "/></g></g></g></g></g></svg>