<svg width="464" height="267" viewBox="0 0 464 267" fill="none" xmlns="http://www.w3.org/2000/svg">
<g filter="url(#filter0_d_1_37)">
<rect x="20" y="20" width="424" height="227" rx="13" fill="#424242"/>
<rect x="24" y="24" width="416" height="219" rx="9" stroke="url(#paint0_linear_1_37)" stroke-width="8"/>
</g>
<path d="M175 -8.74228e-08C176.105 -3.91405e-08 177 0.895431 177 2L177 20L164 20L164 2C164 0.89543 164.895 -5.29108e-07 166 -4.80825e-07L175 -8.74228e-08Z" fill="url(#paint1_linear_1_37)"/>
<path d="M289 267C287.895 267 287 266.105 287 265L287 247L300 247L300 265C300 266.105 299.105 267 298 267L289 267Z" fill="url(#paint2_linear_1_37)"/>
<path d="M134 -8.74228e-08C135.105 -3.91405e-08 136 0.895431 136 2L136 20L123 20L123 2C123 0.89543 123.895 -5.29108e-07 125 -4.80825e-07L134 -8.74228e-08Z" fill="url(#paint3_linear_1_37)"/>
<path d="M330 267C328.895 267 328 266.105 328 265L328 247L341 247L341 265C341 266.105 340.105 267 339 267L330 267Z" fill="url(#paint4_linear_1_37)"/>
<path d="M93 -8.74228e-08C94.1046 -3.91405e-08 95 0.895431 95 2L95 20L82 20L82 2C82 0.89543 82.8954 -5.29108e-07 84 -4.80825e-07L93 -8.74228e-08Z" fill="url(#paint5_linear_1_37)"/>
<path d="M464 76C464 77.1046 463.105 78 462 78L444 78L444 65L462 65C463.105 65 464 65.8954 464 67L464 76Z" fill="url(#paint6_linear_1_37)"/>
<path d="M0 190C0 188.895 0.895431 188 2 188L20 188L20 201L2 201C0.895431 201 0 200.105 0 199L0 190Z" fill="url(#paint7_linear_1_37)"/>
<path d="M216 -8.74228e-08C217.105 -3.91405e-08 218 0.895431 218 2L218 20L205 20L205 2C205 0.89543 205.895 -5.29108e-07 207 -4.80825e-07L216 -8.74228e-08Z" fill="url(#paint8_linear_1_37)"/>
<path d="M248 267C246.895 267 246 266.105 246 265L246 247L259 247L259 265C259 266.105 258.105 267 257 267L248 267Z" fill="url(#paint9_linear_1_37)"/>
<path d="M464 117C464 118.105 463.105 119 462 119L444 119L444 106L462 106C463.105 106 464 106.895 464 108L464 117Z" fill="url(#paint10_linear_1_37)"/>
<path d="M0 149C0 147.895 0.895431 147 2 147L20 147L20 160L2 160C0.895431 160 0 159.105 0 158L0 149Z" fill="url(#paint11_linear_1_37)"/>
<path d="M257 -8.74228e-08C258.105 -3.91405e-08 259 0.895431 259 2L259 20L246 20L246 2C246 0.89543 246.895 -5.29108e-07 248 -4.80825e-07L257 -8.74228e-08Z" fill="url(#paint12_linear_1_37)"/>
<path d="M207 267C205.895 267 205 266.105 205 265L205 247L218 247L218 265C218 266.105 217.105 267 216 267L207 267Z" fill="url(#paint13_linear_1_37)"/>
<path d="M298 -8.74228e-08C299.105 -3.91405e-08 300 0.895431 300 2L300 20L287 20L287 2C287 0.89543 287.895 -5.29108e-07 289 -4.80825e-07L298 -8.74228e-08Z" fill="url(#paint14_linear_1_37)"/>
<path d="M166 267C164.895 267 164 266.105 164 265L164 247L177 247L177 265C177 266.105 176.105 267 175 267L166 267Z" fill="url(#paint15_linear_1_37)"/>
<path d="M339 -8.74228e-08C340.105 -3.91405e-08 341 0.895431 341 2L341 20L328 20L328 2C328 0.89543 328.895 -5.29108e-07 330 -4.80825e-07L339 -8.74228e-08Z" fill="url(#paint16_linear_1_37)"/>
<path d="M125 267C123.895 267 123 266.105 123 265L123 247L136 247L136 265C136 266.105 135.105 267 134 267L125 267Z" fill="url(#paint17_linear_1_37)"/>
<path d="M380 -8.74228e-08C381.105 -3.91405e-08 382 0.895431 382 2L382 20L369 20L369 2C369 0.89543 369.895 -5.29108e-07 371 -4.80825e-07L380 -8.74228e-08Z" fill="url(#paint18_linear_1_37)"/>
<path d="M84 267C82.8954 267 82 266.105 82 265L82 247L95 247L95 265C95 266.105 94.1046 267 93 267L84 267Z" fill="url(#paint19_linear_1_37)"/>
<path d="M464 158C464 159.105 463.105 160 462 160L444 160L444 147L462 147C463.105 147 464 147.895 464 149L464 158Z" fill="url(#paint20_linear_1_37)"/>
<path d="M0 108C0 106.895 0.895431 106 2 106L20 106L20 119L2 119C0.895431 119 0 118.105 0 117L0 108Z" fill="url(#paint21_linear_1_37)"/>
<path d="M464 199C464 200.105 463.105 201 462 201L444 201L444 188L462 188C463.105 188 464 188.895 464 190L464 199Z" fill="url(#paint22_linear_1_37)"/>
<path d="M0 67C0 65.8954 0.895431 65 2 65L20 65L20 78L2 78C0.895431 78 0 77.1046 0 76L0 67Z" fill="url(#paint23_linear_1_37)"/>
<path d="M371 267C369.895 267 369 266.105 369 265L369 247L382 247L382 265C382 266.105 381.105 267 380 267L371 267Z" fill="url(#paint24_linear_1_37)"/>
<defs>
<filter id="filter0_d_1_37" x="16" y="20" width="432" height="235" filterUnits="userSpaceOnUse" color-interpolation-filters="sRGB">
<feFlood flood-opacity="0" result="BackgroundImageFix"/>
<feColorMatrix in="SourceAlpha" type="matrix" values="0 0 0 0 0 0 0 0 0 0 0 0 0 0 0 0 0 0 127 0" result="hardAlpha"/>
<feOffset dy="4"/>
<feGaussianBlur stdDeviation="2"/>
<feComposite in2="hardAlpha" operator="out"/>
<feColorMatrix type="matrix" values="0 0 0 0 0 0 0 0 0 0 0 0 0 0 0 0 0 0 0.25 0"/>
<feBlend mode="normal" in2="BackgroundImageFix" result="effect1_dropShadow_1_37"/>
<feBlend mode="normal" in="SourceGraphic" in2="effect1_dropShadow_1_37" result="shape"/>
</filter>
<linearGradient id="paint0_linear_1_37" x1="232" y1="20" x2="232" y2="247" gradientUnits="userSpaceOnUse">
<stop stop-color="#545454"/>
<stop offset="1" stop-color="#393939"/>
</linearGradient>
<linearGradient id="paint1_linear_1_37" x1="170" y1="-3.49239e-07" x2="170" y2="20" gradientUnits="userSpaceOnUse">
<stop stop-color="#C1C1C1"/>
<stop offset="0.510417" stop-color="#E4E4E4"/>
<stop offset="1" stop-color="#C1C1C1"/>
</linearGradient>
<linearGradient id="paint2_linear_1_37" x1="294" y1="267" x2="294" y2="247" gradientUnits="userSpaceOnUse">
<stop stop-color="#C1C1C1"/>
<stop offset="0.510417" stop-color="#E4E4E4"/>
<stop offset="1" stop-color="#C1C1C1"/>
</linearGradient>
<linearGradient id="paint3_linear_1_37" x1="129" y1="-3.49239e-07" x2="129" y2="20" gradientUnits="userSpaceOnUse">
<stop stop-color="#C1C1C1"/>
<stop offset="0.510417" stop-color="#E4E4E4"/>
<stop offset="1" stop-color="#C1C1C1"/>
</linearGradient>
<linearGradient id="paint4_linear_1_37" x1="335" y1="267" x2="335" y2="247" gradientUnits="userSpaceOnUse">
<stop stop-color="#C1C1C1"/>
<stop offset="0.510417" stop-color="#E4E4E4"/>
<stop offset="1" stop-color="#C1C1C1"/>
</linearGradient>
<linearGradient id="paint5_linear_1_37" x1="88" y1="-3.49239e-07" x2="88" y2="20" gradientUnits="userSpaceOnUse">
<stop stop-color="#C1C1C1"/>
<stop offset="0.510417" stop-color="#E4E4E4"/>
<stop offset="1" stop-color="#C1C1C1"/>
</linearGradient>
<linearGradient id="paint6_linear_1_37" x1="464" y1="71" x2="444" y2="71" gradientUnits="userSpaceOnUse">
<stop stop-color="#C1C1C1"/>
<stop offset="0.510417" stop-color="#E4E4E4"/>
<stop offset="1" stop-color="#C1C1C1"/>
</linearGradient>
<linearGradient id="paint7_linear_1_37" x1="-4.32597e-08" y1="195" x2="20" y2="195" gradientUnits="userSpaceOnUse">
<stop stop-color="#C1C1C1"/>
<stop offset="0.510417" stop-color="#E4E4E4"/>
<stop offset="1" stop-color="#C1C1C1"/>
</linearGradient>
<linearGradient id="paint8_linear_1_37" x1="211" y1="-3.49239e-07" x2="211" y2="20" gradientUnits="userSpaceOnUse">
<stop stop-color="#C1C1C1"/>
<stop offset="0.510417" stop-color="#E4E4E4"/>
<stop offset="1" stop-color="#C1C1C1"/>
</linearGradient>
<linearGradient id="paint9_linear_1_37" x1="253" y1="267" x2="253" y2="247" gradientUnits="userSpaceOnUse">
<stop stop-color="#C1C1C1"/>
<stop offset="0.510417" stop-color="#E4E4E4"/>
<stop offset="1" stop-color="#C1C1C1"/>
</linearGradient>
<linearGradient id="paint10_linear_1_37" x1="464" y1="112" x2="444" y2="112" gradientUnits="userSpaceOnUse">
<stop stop-color="#C1C1C1"/>
<stop offset="0.510417" stop-color="#E4E4E4"/>
<stop offset="1" stop-color="#C1C1C1"/>
</linearGradient>
<linearGradient id="paint11_linear_1_37" x1="-4.32597e-08" y1="154" x2="20" y2="154" gradientUnits="userSpaceOnUse">
<stop stop-color="#C1C1C1"/>
<stop offset="0.510417" stop-color="#E4E4E4"/>
<stop offset="1" stop-color="#C1C1C1"/>
</linearGradient>
<linearGradient id="paint12_linear_1_37" x1="252" y1="-3.49239e-07" x2="252" y2="20" gradientUnits="userSpaceOnUse">
<stop stop-color="#C1C1C1"/>
<stop offset="0.510417" stop-color="#E4E4E4"/>
<stop offset="1" stop-color="#C1C1C1"/>
</linearGradient>
<linearGradient id="paint13_linear_1_37" x1="212" y1="267" x2="212" y2="247" gradientUnits="userSpaceOnUse">
<stop stop-color="#C1C1C1"/>
<stop offset="0.510417" stop-color="#E4E4E4"/>
<stop offset="1" stop-color="#C1C1C1"/>
</linearGradient>
<linearGradient id="paint14_linear_1_37" x1="293" y1="-3.49239e-07" x2="293" y2="20" gradientUnits="userSpaceOnUse">
<stop stop-color="#C1C1C1"/>
<stop offset="0.510417" stop-color="#E4E4E4"/>
<stop offset="1" stop-color="#C1C1C1"/>
</linearGradient>
<linearGradient id="paint15_linear_1_37" x1="171" y1="267" x2="171" y2="247" gradientUnits="userSpaceOnUse">
<stop stop-color="#C1C1C1"/>
<stop offset="0.510417" stop-color="#E4E4E4"/>
<stop offset="1" stop-color="#C1C1C1"/>
</linearGradient>
<linearGradient id="paint16_linear_1_37" x1="334" y1="-3.49239e-07" x2="334" y2="20" gradientUnits="userSpaceOnUse">
<stop stop-color="#C1C1C1"/>
<stop offset="0.510417" stop-color="#E4E4E4"/>
<stop offset="1" stop-color="#C1C1C1"/>
</linearGradient>
<linearGradient id="paint17_linear_1_37" x1="130" y1="267" x2="130" y2="247" gradientUnits="userSpaceOnUse">
<stop stop-color="#C1C1C1"/>
<stop offset="0.510417" stop-color="#E4E4E4"/>
<stop offset="1" stop-color="#C1C1C1"/>
</linearGradient>
<linearGradient id="paint18_linear_1_37" x1="375" y1="-3.49239e-07" x2="375" y2="20" gradientUnits="userSpaceOnUse">
<stop stop-color="#C1C1C1"/>
<stop offset="0.510417" stop-color="#E4E4E4"/>
<stop offset="1" stop-color="#C1C1C1"/>
</linearGradient>
<linearGradient id="paint19_linear_1_37" x1="89" y1="267" x2="89" y2="247" gradientUnits="userSpaceOnUse">
<stop stop-color="#C1C1C1"/>
<stop offset="0.510417" stop-color="#E4E4E4"/>
<stop offset="1" stop-color="#C1C1C1"/>
</linearGradient>
<linearGradient id="paint20_linear_1_37" x1="464" y1="153" x2="444" y2="153" gradientUnits="userSpaceOnUse">
<stop stop-color="#C1C1C1"/>
<stop offset="0.510417" stop-color="#E4E4E4"/>
<stop offset="1" stop-color="#C1C1C1"/>
</linearGradient>
<linearGradient id="paint21_linear_1_37" x1="-4.32597e-08" y1="113" x2="20" y2="113" gradientUnits="userSpaceOnUse">
<stop stop-color="#C1C1C1"/>
<stop offset="0.510417" stop-color="#E4E4E4"/>
<stop offset="1" stop-color="#C1C1C1"/>
</linearGradient>
<linearGradient id="paint22_linear_1_37" x1="464" y1="194" x2="444" y2="194" gradientUnits="userSpaceOnUse">
<stop stop-color="#C1C1C1"/>
<stop offset="0.510417" stop-color="#E4E4E4"/>
<stop offset="1" stop-color="#C1C1C1"/>
</linearGradient>
<linearGradient id="paint23_linear_1_37" x1="-4.32597e-08" y1="72" x2="20" y2="72" gradientUnits="userSpaceOnUse">
<stop stop-color="#C1C1C1"/>
<stop offset="0.510417" stop-color="#E4E4E4"/>
<stop offset="1" stop-color="#C1C1C1"/>
</linearGradient>
<linearGradient id="paint24_linear_1_37" x1="376" y1="267" x2="376" y2="247" gradientUnits="userSpaceOnUse">
<stop stop-color="#C1C1C1"/>
<stop offset="0.510417" stop-color="#E4E4E4"/>
<stop offset="1" stop-color="#C1C1C1"/>
</linearGradient>
</defs>
</svg>
