<svg width="424" height="227" viewBox="0 0 424 227" fill="none" xmlns="http://www.w3.org/2000/svg">
<rect x="4" y="4" width="416" height="219" rx="9" fill="#424242" stroke="url(#paint0_linear_12_314)" stroke-width="8"/>
<path d="M22.4266 162.369H28.9716C30.2509 162.369 31.3627 162.559 32.3069 162.94C33.2512 163.321 33.9784 163.884 34.4886 164.631C35.0064 165.377 35.2653 166.298 35.2653 167.395C35.2653 168.347 35.1168 169.142 34.8198 169.782C34.5228 170.422 34.1078 170.951 33.5748 171.37C33.0494 171.781 32.4364 172.12 31.7358 172.386L30.4222 173.129H24.9281L24.9052 170.033H28.9716C29.4818 170.033 29.9044 169.942 30.2395 169.759C30.5745 169.577 30.8258 169.318 30.9933 168.983C31.1685 168.64 31.256 168.233 31.256 167.76C31.256 167.281 31.1685 166.869 30.9933 166.527C30.8182 166.184 30.5593 165.921 30.2166 165.739C29.8816 165.556 29.4665 165.464 28.9716 165.464H26.4358V179H22.4266V162.369ZM31.5302 179L27.8522 171.644L32.1013 171.621L35.825 178.829V179H31.5302ZM37.0244 172.946V172.706C37.0244 171.8 37.1538 170.966 37.4127 170.205C37.6716 169.436 38.0524 168.769 38.5549 168.206C39.0575 167.642 39.6781 167.204 40.4168 166.892C41.1554 166.572 42.0083 166.413 42.9754 166.413C43.9501 166.413 44.8068 166.572 45.5454 166.892C46.2917 167.204 46.9161 167.642 47.4187 168.206C47.9213 168.769 48.302 169.436 48.561 170.205C48.8199 170.966 48.9493 171.8 48.9493 172.706V172.946C48.9493 173.845 48.8199 174.679 48.561 175.448C48.302 176.209 47.9213 176.875 47.4187 177.447C46.9161 178.01 46.2955 178.448 45.5569 178.76C44.8182 179.072 43.9653 179.228 42.9983 179.228C42.0312 179.228 41.1745 179.072 40.4282 178.76C39.682 178.448 39.0575 178.01 38.5549 177.447C38.0524 176.875 37.6716 176.209 37.4127 175.448C37.1538 174.679 37.0244 173.845 37.0244 172.946ZM40.8737 172.706V172.946C40.8737 173.411 40.908 173.845 40.9765 174.248C41.045 174.652 41.1593 175.006 41.3192 175.311C41.4791 175.608 41.6961 175.84 41.9702 176.007C42.2444 176.175 42.587 176.259 42.9983 176.259C43.4018 176.259 43.7369 176.175 44.0034 176.007C44.2776 175.84 44.4946 175.608 44.6545 175.311C44.8144 175.006 44.9286 174.652 44.9972 174.248C45.0657 173.845 45.1 173.411 45.1 172.946V172.706C45.1 172.257 45.0657 171.834 44.9972 171.438C44.9286 171.035 44.8144 170.681 44.6545 170.376C44.4946 170.064 44.2776 169.82 44.0034 169.645C43.7293 169.47 43.3866 169.382 42.9754 169.382C42.5718 169.382 42.233 169.47 41.9588 169.645C41.6923 169.82 41.4791 170.064 41.3192 170.376C41.1593 170.681 41.045 171.035 40.9765 171.438C40.908 171.834 40.8737 172.257 40.8737 172.706ZM50.6969 161.455H54.5463V175.962L54.1465 179H50.6969V161.455ZM62.1307 172.683V172.923C62.1307 173.86 62.0355 174.713 61.8452 175.482C61.6548 176.251 61.3616 176.917 60.9657 177.481C60.5697 178.037 60.0709 178.467 59.4693 178.772C58.8677 179.076 58.1557 179.228 57.3333 179.228C56.5871 179.228 55.9474 179.069 55.4144 178.749C54.8813 178.421 54.4359 177.972 54.078 177.401C53.7201 176.822 53.4307 176.156 53.2099 175.402C52.989 174.64 52.8139 173.826 52.6844 172.958V172.672C52.8139 171.812 52.989 171.004 53.2099 170.25C53.4307 169.489 53.7201 168.823 54.078 168.252C54.4359 167.673 54.8775 167.224 55.403 166.904C55.936 166.576 56.5718 166.413 57.3105 166.413C58.1405 166.413 58.8563 166.569 59.4579 166.881C60.0671 167.193 60.5697 167.631 60.9657 168.194C61.3616 168.758 61.6548 169.42 61.8452 170.182C62.0355 170.943 62.1307 171.777 62.1307 172.683ZM58.2814 172.923V172.683C58.2814 172.234 58.2547 171.812 58.2014 171.416C58.1481 171.02 58.0529 170.669 57.9159 170.365C57.7788 170.06 57.5846 169.82 57.3333 169.645C57.082 169.47 56.7546 169.382 56.351 169.382C55.9398 169.382 55.5933 169.451 55.3116 169.588C55.0374 169.725 54.8166 169.923 54.6491 170.182C54.4892 170.433 54.3749 170.745 54.3064 171.119C54.2379 171.484 54.2074 171.899 54.215 172.364V173.266C54.1998 173.898 54.2569 174.439 54.3864 174.888C54.5158 175.337 54.7405 175.68 55.0603 175.916C55.3801 176.152 55.818 176.27 56.3739 176.27C56.7851 176.27 57.1163 176.19 57.3676 176.03C57.6265 175.87 57.8207 175.642 57.9501 175.345C58.0796 175.048 58.1672 174.694 58.2129 174.283C58.2585 173.871 58.2814 173.418 58.2814 172.923ZM63.8784 161.455H67.7277V175.962L67.3279 179H63.8784V161.455ZM75.3122 172.683V172.923C75.3122 173.86 75.217 174.713 75.0266 175.482C74.8362 176.251 74.5431 176.917 74.1471 177.481C73.7511 178.037 73.2523 178.467 72.6507 178.772C72.0492 179.076 71.3372 179.228 70.5148 179.228C69.7685 179.228 69.1288 179.069 68.5958 178.749C68.0628 178.421 67.6173 177.972 67.2594 177.401C66.9015 176.822 66.6121 176.156 66.3913 175.402C66.1704 174.64 65.9953 173.826 65.8659 172.958V172.672C65.9953 171.812 66.1704 171.004 66.3913 170.25C66.6121 169.489 66.9015 168.823 67.2594 168.252C67.6173 167.673 68.0589 167.224 68.5844 166.904C69.1174 166.576 69.7533 166.413 70.4919 166.413C71.3219 166.413 72.0377 166.569 72.6393 166.881C73.2485 167.193 73.7511 167.631 74.1471 168.194C74.5431 168.758 74.8362 169.42 75.0266 170.182C75.217 170.943 75.3122 171.777 75.3122 172.683ZM71.4628 172.923V172.683C71.4628 172.234 71.4362 171.812 71.3829 171.416C71.3296 171.02 71.2344 170.669 71.0973 170.365C70.9602 170.06 70.7661 169.82 70.5148 169.645C70.2635 169.47 69.936 169.382 69.5324 169.382C69.1212 169.382 68.7747 169.451 68.493 169.588C68.2189 169.725 67.998 169.923 67.8305 170.182C67.6706 170.433 67.5564 170.745 67.4878 171.119C67.4193 171.484 67.3888 171.899 67.3964 172.364V173.266C67.3812 173.898 67.4383 174.439 67.5678 174.888C67.6972 175.337 67.9219 175.68 68.2417 175.916C68.5615 176.152 68.9994 176.27 69.5553 176.27C69.9665 176.27 70.2977 176.19 70.549 176.03C70.8079 175.87 71.0021 175.642 71.1316 175.345C71.261 175.048 71.3486 174.694 71.3943 174.283C71.44 173.871 71.4628 173.418 71.4628 172.923ZM80.6807 177.549L83.8789 166.641H88.0138L83.0451 180.839C82.9385 181.151 82.7976 181.486 82.6225 181.844C82.4473 182.21 82.2075 182.556 81.9029 182.884C81.5983 183.211 81.2061 183.478 80.7264 183.683C80.2542 183.889 79.6679 183.992 78.9673 183.992C78.5942 183.992 78.3201 183.973 78.1449 183.934C77.9774 183.904 77.7185 183.847 77.3682 183.763V181.01C77.4672 181.01 77.5509 181.01 77.6195 181.01C77.6956 181.01 77.7794 181.01 77.8708 181.01C78.282 181.01 78.6094 180.968 78.8531 180.885C79.1044 180.801 79.2948 180.679 79.4242 180.519C79.5613 180.359 79.6679 180.165 79.744 179.937L80.6807 177.549ZM79.8697 166.641L82.3027 175.288L82.7253 179.366H80.1438L75.7462 166.641H79.8697ZM101.641 173.78V162.369H105.639V173.78C105.639 174.892 105.383 175.855 104.873 176.67C104.371 177.485 103.685 178.117 102.817 178.566C101.957 179.008 100.99 179.228 99.916 179.228C98.8042 179.228 97.8142 179.042 96.9461 178.669C96.0857 178.296 95.4079 177.721 94.913 176.944C94.4256 176.167 94.1819 175.177 94.1819 173.974H98.2026C98.2026 174.538 98.2673 174.979 98.3968 175.299C98.5262 175.611 98.7166 175.832 98.9679 175.962C99.2268 176.083 99.5428 176.144 99.916 176.144C100.281 176.144 100.59 176.053 100.841 175.87C101.1 175.68 101.298 175.41 101.435 175.059C101.572 174.701 101.641 174.275 101.641 173.78ZM107.523 172.946V172.706C107.523 171.8 107.653 170.966 107.912 170.205C108.171 169.436 108.551 168.769 109.054 168.206C109.556 167.642 110.177 167.204 110.916 166.892C111.654 166.572 112.507 166.413 113.474 166.413C114.449 166.413 115.306 166.572 116.044 166.892C116.791 167.204 117.415 167.642 117.918 168.206C118.42 168.769 118.801 169.436 119.06 170.205C119.319 170.966 119.448 171.8 119.448 172.706V172.946C119.448 173.845 119.319 174.679 119.06 175.448C118.801 176.209 118.42 176.875 117.918 177.447C117.415 178.01 116.794 178.448 116.056 178.76C115.317 179.072 114.464 179.228 113.497 179.228C112.53 179.228 111.673 179.072 110.927 178.76C110.181 178.448 109.556 178.01 109.054 177.447C108.551 176.875 108.171 176.209 107.912 175.448C107.653 174.679 107.523 173.845 107.523 172.946ZM111.373 172.706V172.946C111.373 173.411 111.407 173.845 111.475 174.248C111.544 174.652 111.658 175.006 111.818 175.311C111.978 175.608 112.195 175.84 112.469 176.007C112.743 176.175 113.086 176.259 113.497 176.259C113.901 176.259 114.236 176.175 114.502 176.007C114.776 175.84 114.993 175.608 115.153 175.311C115.313 175.006 115.428 174.652 115.496 174.248C115.565 173.845 115.599 173.411 115.599 172.946V172.706C115.599 172.257 115.565 171.834 115.496 171.438C115.428 171.035 115.313 170.681 115.153 170.376C114.993 170.064 114.776 169.82 114.502 169.645C114.228 169.47 113.886 169.382 113.474 169.382C113.071 169.382 112.732 169.47 112.458 169.645C112.191 169.82 111.978 170.064 111.818 170.376C111.658 170.681 111.544 171.035 111.475 171.438C111.407 171.834 111.373 172.257 111.373 172.706ZM124.931 161.455V179H121.082V161.455H124.931ZM124.474 172.398L123.572 172.421C123.572 171.553 123.678 170.753 123.892 170.022C124.105 169.291 124.409 168.655 124.805 168.114C125.201 167.574 125.677 167.155 126.233 166.858C126.789 166.561 127.406 166.413 128.084 166.413C128.693 166.413 129.249 166.5 129.751 166.675C130.261 166.85 130.699 167.132 131.065 167.521C131.438 167.909 131.723 168.415 131.921 169.04C132.127 169.664 132.23 170.426 132.23 171.324V179H128.358V171.301C128.358 170.799 128.285 170.41 128.141 170.136C128.004 169.854 127.806 169.66 127.547 169.554C127.288 169.439 126.972 169.382 126.599 169.382C126.149 169.382 125.784 169.459 125.502 169.611C125.22 169.763 125.003 169.976 124.851 170.25C124.706 170.517 124.607 170.833 124.554 171.199C124.501 171.564 124.474 171.964 124.474 172.398ZM138.147 169.28V179H134.297V166.641H137.907L138.147 169.28ZM137.69 172.398L136.787 172.421C136.787 171.476 136.902 170.635 137.13 169.896C137.359 169.15 137.682 168.518 138.101 168C138.52 167.482 139.019 167.09 139.597 166.824C140.184 166.55 140.835 166.413 141.551 166.413C142.122 166.413 142.643 166.496 143.115 166.664C143.595 166.831 144.006 167.102 144.349 167.475C144.699 167.848 144.966 168.343 145.149 168.96C145.339 169.569 145.434 170.323 145.434 171.221V179H141.562V171.21C141.562 170.715 141.493 170.338 141.356 170.079C141.219 169.813 141.021 169.63 140.762 169.531C140.503 169.432 140.187 169.382 139.814 169.382C139.418 169.382 139.083 169.459 138.809 169.611C138.535 169.763 138.314 169.976 138.147 170.25C137.987 170.517 137.869 170.833 137.793 171.199C137.724 171.564 137.69 171.964 137.69 172.398ZM154.047 175.528C154.047 175.314 153.974 175.132 153.83 174.979C153.693 174.819 153.449 174.675 153.099 174.545C152.748 174.408 152.257 174.271 151.625 174.134C151.023 174.005 150.456 173.833 149.923 173.62C149.398 173.407 148.937 173.148 148.541 172.843C148.145 172.539 147.833 172.177 147.604 171.758C147.384 171.339 147.273 170.86 147.273 170.319C147.273 169.794 147.384 169.299 147.604 168.834C147.833 168.362 148.164 167.947 148.598 167.589C149.04 167.224 149.577 166.938 150.209 166.732C150.841 166.519 151.56 166.413 152.368 166.413C153.479 166.413 154.439 166.584 155.246 166.927C156.053 167.262 156.674 167.734 157.108 168.343C157.549 168.945 157.77 169.641 157.77 170.433H153.921C153.921 170.121 153.868 169.854 153.761 169.634C153.662 169.413 153.498 169.245 153.27 169.131C153.041 169.009 152.737 168.948 152.356 168.948C152.09 168.948 151.846 168.998 151.625 169.097C151.412 169.196 151.241 169.333 151.111 169.508C150.982 169.683 150.917 169.889 150.917 170.125C150.917 170.292 150.955 170.445 151.031 170.582C151.115 170.711 151.241 170.833 151.408 170.947C151.576 171.054 151.789 171.153 152.048 171.244C152.307 171.328 152.619 171.404 152.984 171.473C153.814 171.625 154.591 171.842 155.314 172.124C156.038 172.405 156.624 172.805 157.074 173.323C157.53 173.841 157.759 174.538 157.759 175.413C157.759 175.962 157.633 176.468 157.382 176.933C157.131 177.389 156.769 177.793 156.297 178.143C155.825 178.486 155.257 178.753 154.595 178.943C153.932 179.133 153.186 179.228 152.356 179.228C151.176 179.228 150.178 179.019 149.363 178.6C148.549 178.174 147.932 177.641 147.513 177.001C147.102 176.354 146.896 175.699 146.896 175.036H150.483C150.498 175.417 150.589 175.729 150.757 175.973C150.932 176.217 151.164 176.396 151.454 176.51C151.743 176.624 152.078 176.681 152.459 176.681C152.809 176.681 153.099 176.632 153.327 176.533C153.563 176.434 153.742 176.301 153.864 176.133C153.986 175.958 154.047 175.756 154.047 175.528ZM159.084 172.946V172.706C159.084 171.8 159.213 170.966 159.472 170.205C159.731 169.436 160.112 168.769 160.614 168.206C161.117 167.642 161.738 167.204 162.476 166.892C163.215 166.572 164.068 166.413 165.035 166.413C166.01 166.413 166.866 166.572 167.605 166.892C168.351 167.204 168.976 167.642 169.478 168.206C169.981 168.769 170.362 169.436 170.62 170.205C170.879 170.966 171.009 171.8 171.009 172.706V172.946C171.009 173.845 170.879 174.679 170.62 175.448C170.362 176.209 169.981 176.875 169.478 177.447C168.976 178.01 168.355 178.448 167.616 178.76C166.878 179.072 166.025 179.228 165.058 179.228C164.091 179.228 163.234 179.072 162.488 178.76C161.741 178.448 161.117 178.01 160.614 177.447C160.112 176.875 159.731 176.209 159.472 175.448C159.213 174.679 159.084 173.845 159.084 172.946ZM162.933 172.706V172.946C162.933 173.411 162.967 173.845 163.036 174.248C163.105 174.652 163.219 175.006 163.379 175.311C163.539 175.608 163.756 175.84 164.03 176.007C164.304 176.175 164.647 176.259 165.058 176.259C165.461 176.259 165.796 176.175 166.063 176.007C166.337 175.84 166.554 175.608 166.714 175.311C166.874 175.006 166.988 174.652 167.057 174.248C167.125 173.845 167.159 173.411 167.159 172.946V172.706C167.159 172.257 167.125 171.834 167.057 171.438C166.988 171.035 166.874 170.681 166.714 170.376C166.554 170.064 166.337 169.82 166.063 169.645C165.789 169.47 165.446 169.382 165.035 169.382C164.631 169.382 164.292 169.47 164.018 169.645C163.752 169.82 163.539 170.064 163.379 170.376C163.219 170.681 163.105 171.035 163.036 171.438C162.967 171.834 162.933 172.257 162.933 172.706ZM176.503 169.28V179H172.654V166.641H176.263L176.503 169.28ZM176.046 172.398L175.144 172.421C175.144 171.476 175.258 170.635 175.486 169.896C175.715 169.15 176.038 168.518 176.457 168C176.876 167.482 177.375 167.09 177.954 166.824C178.54 166.55 179.191 166.413 179.907 166.413C180.478 166.413 181 166.496 181.472 166.664C181.951 166.831 182.363 167.102 182.705 167.475C183.056 167.848 183.322 168.343 183.505 168.96C183.695 169.569 183.79 170.323 183.79 171.221V179H179.918V171.21C179.918 170.715 179.85 170.338 179.713 170.079C179.576 169.813 179.378 169.63 179.119 169.531C178.86 169.432 178.544 169.382 178.171 169.382C177.775 169.382 177.44 169.459 177.165 169.611C176.891 169.763 176.671 169.976 176.503 170.25C176.343 170.517 176.225 170.833 176.149 171.199C176.08 171.564 176.046 171.964 176.046 172.398Z" fill="url(#paint1_linear_12_314)"/>
<path d="M28.1654 196.37C28.1654 196.187 28.1385 196.023 28.0847 195.878C28.031 195.727 27.9314 195.587 27.7862 195.458C27.641 195.329 27.4312 195.2 27.1569 195.071C26.888 194.936 26.533 194.797 26.0919 194.651C25.5755 194.479 25.078 194.286 24.5993 194.07C24.1206 193.85 23.693 193.594 23.3164 193.304C22.9399 193.008 22.6414 192.664 22.4209 192.271C22.2003 191.873 22.0901 191.411 22.0901 190.884C22.0901 190.378 22.203 189.923 22.4289 189.52C22.6549 189.111 22.9695 188.764 23.3729 188.479C23.7817 188.189 24.2604 187.968 24.8091 187.818C25.3577 187.662 25.9574 187.584 26.6083 187.584C27.4689 187.584 28.2273 187.734 28.8835 188.035C29.5451 188.331 30.0615 188.754 30.4326 189.302C30.8091 189.845 30.9974 190.488 30.9974 191.23H28.1816C28.1816 190.935 28.1197 190.674 27.996 190.448C27.8777 190.222 27.6975 190.044 27.4554 189.915C27.2134 189.786 26.9095 189.722 26.5437 189.722C26.1887 189.722 25.8902 189.776 25.6482 189.883C25.4061 189.991 25.2232 190.136 25.0995 190.319C24.9758 190.496 24.9139 190.693 24.9139 190.908C24.9139 191.085 24.9624 191.247 25.0592 191.392C25.1614 191.532 25.3039 191.663 25.4868 191.787C25.675 191.911 25.901 192.029 26.1645 192.142C26.4335 192.255 26.7347 192.365 27.0682 192.473C27.6921 192.672 28.2461 192.895 28.7302 193.143C29.2197 193.385 29.6311 193.662 29.9646 193.974C30.3035 194.28 30.559 194.63 30.7311 195.023C30.9086 195.415 30.9974 195.859 30.9974 196.354C30.9974 196.881 30.8952 197.349 30.6908 197.758C30.4864 198.166 30.1932 198.513 29.8113 198.798C29.4294 199.078 28.9722 199.291 28.4397 199.436C27.9072 199.581 27.3129 199.654 26.6567 199.654C26.0543 199.654 25.4599 199.578 24.8736 199.428C24.2927 199.272 23.7656 199.035 23.2922 198.718C22.8189 198.395 22.4397 197.984 22.1546 197.483C21.8749 196.978 21.7351 196.378 21.7351 195.684H24.5751C24.5751 196.028 24.6208 196.319 24.7122 196.555C24.8037 196.792 24.9382 196.983 25.1157 197.128C25.2932 197.268 25.511 197.37 25.7692 197.435C26.0274 197.494 26.3232 197.524 26.6567 197.524C27.0171 197.524 27.3075 197.473 27.528 197.37C27.7486 197.263 27.9099 197.123 28.0121 196.951C28.1143 196.773 28.1654 196.58 28.1654 196.37ZM31.9897 195.216V195.047C31.9897 194.407 32.0812 193.818 32.2641 193.28C32.4469 192.737 32.7159 192.266 33.0709 191.868C33.4259 191.47 33.8643 191.161 34.386 190.94C34.9077 190.714 35.5102 190.601 36.1933 190.601C36.8818 190.601 37.4869 190.714 38.0086 190.94C38.5357 191.161 38.9768 191.47 39.3318 191.868C39.6868 192.266 39.9557 192.737 40.1386 193.28C40.3215 193.818 40.4129 194.407 40.4129 195.047V195.216C40.4129 195.851 40.3215 196.44 40.1386 196.983C39.9557 197.521 39.6868 197.992 39.3318 198.395C38.9768 198.793 38.5384 199.102 38.0167 199.323C37.4949 199.543 36.8925 199.654 36.2094 199.654C35.5263 199.654 34.9212 199.543 34.3941 199.323C33.8669 199.102 33.4259 198.793 33.0709 198.395C32.7159 197.992 32.4469 197.521 32.2641 196.983C32.0812 196.44 31.9897 195.851 31.9897 195.216ZM34.7087 195.047V195.216C34.7087 195.544 34.7329 195.851 34.7813 196.136C34.8297 196.421 34.9104 196.671 35.0234 196.886C35.1363 197.096 35.2896 197.26 35.4833 197.378C35.6769 197.497 35.919 197.556 36.2094 197.556C36.4945 197.556 36.7312 197.497 36.9194 197.378C37.113 197.26 37.2663 197.096 37.3793 196.886C37.4922 196.671 37.5729 196.421 37.6213 196.136C37.6697 195.851 37.694 195.544 37.694 195.216V195.047C37.694 194.729 37.6697 194.431 37.6213 194.151C37.5729 193.866 37.4922 193.616 37.3793 193.401C37.2663 193.18 37.113 193.008 36.9194 192.884C36.7258 192.761 36.4837 192.699 36.1933 192.699C35.9082 192.699 35.6688 192.761 35.4752 192.884C35.2869 193.008 35.1363 193.18 35.0234 193.401C34.9104 193.616 34.8297 193.866 34.7813 194.151C34.7329 194.431 34.7087 194.729 34.7087 195.047ZM44.9553 199.492H42.2202V190.053C42.2202 189.375 42.3574 188.805 42.6317 188.342C42.906 187.88 43.2933 187.53 43.7935 187.293C44.2937 187.051 44.8854 186.93 45.5685 186.93C45.8052 186.93 46.0284 186.946 46.2382 186.979C46.4479 187.011 46.6523 187.051 46.8513 187.1L46.8594 189.1C46.7626 189.074 46.6631 189.055 46.5609 189.044C46.4587 189.033 46.3323 189.028 46.1817 189.028C45.9181 189.028 45.6949 189.068 45.512 189.149C45.3291 189.224 45.1893 189.34 45.0925 189.496C45.001 189.646 44.9553 189.832 44.9553 190.053V199.492ZM46.6496 190.763V192.65H40.9616V190.763H46.6496ZM52.2248 190.763V192.65H46.9643V190.763H52.2248ZM48.0696 188.592H50.7886V196.644C50.7886 196.876 50.8155 197.056 50.8693 197.185C50.9231 197.309 51.0145 197.397 51.1436 197.451C51.2781 197.499 51.4556 197.524 51.6761 197.524C51.8321 197.524 51.9612 197.521 52.0634 197.516C52.1656 197.505 52.2624 197.491 52.3538 197.475V199.42C52.1226 199.495 51.8805 199.551 51.6277 199.589C51.3749 199.632 51.106 199.654 50.8209 199.654C50.24 199.654 49.7424 199.562 49.3283 199.379C48.9195 199.196 48.6075 198.909 48.3924 198.516C48.1772 198.123 48.0696 197.612 48.0696 196.983V188.592ZM55.9603 196.894L57.574 190.763H59.2764L58.6712 193.837L57.0737 199.492H55.7102L55.9603 196.894ZM55.3229 190.763L56.3234 196.846L56.4363 199.492H54.7824L52.7169 190.763H55.3229ZM60.7125 196.717L61.721 190.763H64.327L62.2777 199.492H60.6237L60.7125 196.717ZM59.47 190.763L61.0998 196.878L61.3499 199.492H59.9702L58.405 193.853L57.8241 190.763H59.47ZM69.8457 197.298V193.699C69.8457 193.452 69.8107 193.239 69.7408 193.062C69.6709 192.884 69.5606 192.747 69.41 192.65C69.2594 192.548 69.0577 192.497 68.8049 192.497C68.6005 192.497 68.4257 192.532 68.2804 192.602C68.1352 192.672 68.025 192.777 67.9497 192.917C67.8743 193.057 67.8367 193.234 67.8367 193.449H65.1177C65.1177 193.046 65.2065 192.672 65.384 192.328C65.5668 191.978 65.825 191.674 66.1585 191.416C66.4974 191.158 66.9008 190.959 67.3687 190.819C67.8421 190.674 68.3692 190.601 68.9501 190.601C69.644 190.601 70.2625 190.717 70.8058 190.948C71.3544 191.179 71.7874 191.526 72.1048 191.989C72.4221 192.446 72.5808 193.022 72.5808 193.715V197.29C72.5808 197.86 72.6131 198.293 72.6776 198.589C72.7422 198.879 72.8336 199.135 72.9519 199.355V199.492H70.2249C70.0958 199.223 69.999 198.895 69.9344 198.508C69.8753 198.115 69.8457 197.712 69.8457 197.298ZM70.1765 194.159L70.1926 195.612H68.9904C68.7376 195.612 68.5225 195.646 68.345 195.716C68.1729 195.786 68.033 195.883 67.9254 196.007C67.8232 196.125 67.7479 196.26 67.6995 196.41C67.6565 196.561 67.635 196.72 67.635 196.886C67.635 197.048 67.6726 197.193 67.7479 197.322C67.8286 197.446 67.9362 197.542 68.0707 197.612C68.2051 197.682 68.3557 197.717 68.5225 197.717C68.8237 197.717 69.0792 197.661 69.289 197.548C69.5041 197.43 69.6682 197.287 69.7811 197.12C69.8941 196.954 69.9506 196.798 69.9506 196.652L70.5476 197.766C70.44 197.981 70.3163 198.199 70.1765 198.419C70.042 198.64 69.8726 198.844 69.6682 199.032C69.4692 199.215 69.2244 199.366 68.934 199.484C68.6435 199.597 68.2912 199.654 67.877 199.654C67.3392 199.654 66.8443 199.543 66.3925 199.323C65.9461 199.102 65.5884 198.796 65.3194 198.403C65.0505 198.005 64.916 197.548 64.916 197.032C64.916 196.58 64.9967 196.176 65.1581 195.821C65.3248 195.466 65.5749 195.165 65.9084 194.918C66.2419 194.67 66.6668 194.482 67.1832 194.353C67.6995 194.224 68.3073 194.159 69.0066 194.159H70.1765ZM76.8327 192.925V199.492H74.1137V190.763H76.6552L76.8327 192.925ZM79.4145 190.698L79.3661 193.223C79.2586 193.213 79.1133 193.199 78.9304 193.183C78.7476 193.167 78.5943 193.159 78.4706 193.159C78.1532 193.159 77.8789 193.196 77.6476 193.272C77.4217 193.342 77.2334 193.449 77.0828 193.594C76.9376 193.734 76.83 193.912 76.7601 194.127C76.6956 194.342 76.666 194.592 76.6714 194.877L76.1792 194.555C76.1792 193.968 76.2357 193.436 76.3486 192.957C76.467 192.473 76.6337 192.056 76.8489 191.707C77.064 191.352 77.3249 191.08 77.6315 190.892C77.9381 190.698 78.2823 190.601 78.6642 190.601C78.7987 190.601 78.9304 190.609 79.0595 190.625C79.194 190.642 79.3123 190.666 79.4145 190.698ZM84.4168 199.654C83.7068 199.654 83.0721 199.543 82.5127 199.323C81.9533 199.097 81.48 198.788 81.0927 198.395C80.7108 198.002 80.4177 197.551 80.2133 197.04C80.0143 196.529 79.9148 195.988 79.9148 195.418V195.111C79.9148 194.471 80.0035 193.88 80.181 193.336C80.3585 192.788 80.6221 192.309 80.9717 191.9C81.3213 191.491 81.7597 191.174 82.2868 190.948C82.8139 190.717 83.4271 190.601 84.1264 190.601C84.7449 190.601 85.2989 190.701 85.7884 190.9C86.2779 191.099 86.692 191.384 87.0309 191.755C87.3751 192.126 87.636 192.575 87.8135 193.102C87.9964 193.629 88.0878 194.221 88.0878 194.877V195.983H80.9556V194.28H85.4334V194.07C85.4388 193.78 85.3877 193.533 85.2801 193.328C85.1779 193.124 85.0273 192.968 84.8283 192.86C84.6293 192.753 84.3872 192.699 84.1022 192.699C83.8063 192.699 83.5616 192.763 83.368 192.893C83.1797 193.022 83.0318 193.199 82.9242 193.425C82.822 193.646 82.7494 193.901 82.7064 194.192C82.6633 194.482 82.6418 194.789 82.6418 195.111V195.418C82.6418 195.741 82.6848 196.034 82.7709 196.297C82.8623 196.561 82.9914 196.787 83.1582 196.975C83.3303 197.158 83.5347 197.3 83.7714 197.403C84.0134 197.505 84.2877 197.556 84.5943 197.556C84.9655 197.556 85.3312 197.486 85.6916 197.346C86.052 197.206 86.3612 196.975 86.6194 196.652L87.8539 198.121C87.6764 198.374 87.4236 198.618 87.0955 198.855C86.7727 199.092 86.3855 199.285 85.9336 199.436C85.4818 199.581 84.9762 199.654 84.4168 199.654ZM101.521 197.314V199.492H95.2605V197.314H101.521ZM96.269 187.745V199.492H93.437V187.745H96.269ZM100.715 192.408V194.514H95.2605V192.408H100.715ZM101.546 187.745V189.932H95.2605V187.745H101.546ZM105.225 192.626V199.492H102.506V190.763H105.055L105.225 192.626ZM104.902 194.829L104.265 194.845C104.265 194.178 104.345 193.584 104.507 193.062C104.668 192.535 104.897 192.088 105.192 191.723C105.488 191.357 105.841 191.08 106.249 190.892C106.663 190.698 107.123 190.601 107.629 190.601C108.032 190.601 108.401 190.66 108.734 190.779C109.073 190.897 109.364 191.088 109.606 191.352C109.853 191.615 110.041 191.965 110.17 192.4C110.305 192.831 110.372 193.363 110.372 193.998V199.492H107.637V193.99C107.637 193.64 107.589 193.374 107.492 193.191C107.395 193.003 107.255 192.874 107.072 192.804C106.889 192.734 106.666 192.699 106.403 192.699C106.123 192.699 105.886 192.753 105.693 192.86C105.499 192.968 105.343 193.118 105.225 193.312C105.112 193.5 105.028 193.724 104.975 193.982C104.926 194.24 104.902 194.522 104.902 194.829ZM117.367 190.763H119.836V199.153C119.836 199.96 119.651 200.643 119.279 201.203C118.908 201.768 118.389 202.195 117.722 202.486C117.061 202.781 116.286 202.929 115.399 202.929C115.006 202.929 114.605 202.878 114.196 202.776C113.788 202.679 113.406 202.534 113.051 202.34C112.696 202.147 112.397 201.907 112.155 201.622L113.293 200.025C113.513 200.272 113.79 200.482 114.124 200.654C114.457 200.832 114.85 200.92 115.302 200.92C115.694 200.92 116.023 200.85 116.286 200.711C116.555 200.571 116.759 200.366 116.899 200.097C117.039 199.834 117.109 199.514 117.109 199.137V192.828L117.367 190.763ZM111.566 195.232V195.063C111.566 194.401 111.647 193.799 111.808 193.256C111.975 192.707 112.212 192.236 112.518 191.844C112.83 191.446 113.207 191.139 113.648 190.924C114.089 190.709 114.586 190.601 115.14 190.601C115.738 190.601 116.227 190.717 116.609 190.948C116.996 191.174 117.305 191.491 117.537 191.9C117.773 192.309 117.956 192.788 118.085 193.336C118.22 193.88 118.333 194.466 118.424 195.095V195.297C118.333 195.889 118.206 196.448 118.045 196.975C117.889 197.497 117.685 197.959 117.432 198.363C117.179 198.766 116.862 199.084 116.48 199.315C116.103 199.541 115.651 199.654 115.124 199.654C114.576 199.654 114.081 199.543 113.64 199.323C113.204 199.102 112.83 198.793 112.518 198.395C112.212 197.997 111.975 197.529 111.808 196.991C111.647 196.453 111.566 195.867 111.566 195.232ZM114.285 195.063V195.232C114.285 195.56 114.315 195.864 114.374 196.144C114.439 196.424 114.535 196.671 114.664 196.886C114.794 197.096 114.952 197.26 115.14 197.378C115.334 197.497 115.56 197.556 115.818 197.556C116.211 197.556 116.528 197.473 116.77 197.306C117.012 197.139 117.187 196.902 117.295 196.596C117.402 196.289 117.448 195.929 117.432 195.515V194.877C117.443 194.522 117.418 194.21 117.359 193.941C117.3 193.667 117.206 193.438 117.077 193.256C116.953 193.073 116.786 192.936 116.577 192.844C116.372 192.747 116.125 192.699 115.834 192.699C115.582 192.699 115.358 192.758 115.165 192.876C114.971 192.995 114.81 193.161 114.681 193.377C114.551 193.586 114.452 193.837 114.382 194.127C114.318 194.412 114.285 194.724 114.285 195.063ZM124.274 190.763V199.492H121.547V190.763H124.274ZM121.385 188.512C121.385 188.124 121.525 187.807 121.805 187.559C122.084 187.312 122.448 187.188 122.894 187.188C123.34 187.188 123.704 187.312 123.983 187.559C124.263 187.807 124.403 188.124 124.403 188.512C124.403 188.899 124.263 189.216 123.983 189.464C123.704 189.711 123.34 189.835 122.894 189.835C122.448 189.835 122.084 189.711 121.805 189.464C121.525 189.216 121.385 188.899 121.385 188.512ZM128.622 192.626V199.492H125.903V190.763H128.453L128.622 192.626ZM128.3 194.829L127.662 194.845C127.662 194.178 127.743 193.584 127.904 193.062C128.066 192.535 128.294 192.088 128.59 191.723C128.886 191.357 129.238 191.08 129.647 190.892C130.061 190.698 130.521 190.601 131.027 190.601C131.43 190.601 131.799 190.66 132.132 190.779C132.471 190.897 132.761 191.088 133.003 191.352C133.251 191.615 133.439 191.965 133.568 192.4C133.703 192.831 133.77 193.363 133.77 193.998V199.492H131.035V193.99C131.035 193.64 130.986 193.374 130.89 193.191C130.793 193.003 130.653 192.874 130.47 192.804C130.287 192.734 130.064 192.699 129.8 192.699C129.521 192.699 129.284 192.753 129.09 192.86C128.897 192.968 128.741 193.118 128.622 193.312C128.509 193.5 128.426 193.724 128.372 193.982C128.324 194.24 128.3 194.522 128.3 194.829ZM139.506 199.654C138.796 199.654 138.162 199.543 137.602 199.323C137.043 199.097 136.57 198.788 136.182 198.395C135.8 198.002 135.507 197.551 135.303 197.04C135.104 196.529 135.004 195.988 135.004 195.418V195.111C135.004 194.471 135.093 193.88 135.271 193.336C135.448 192.788 135.712 192.309 136.061 191.9C136.411 191.491 136.849 191.174 137.376 190.948C137.904 190.717 138.517 190.601 139.216 190.601C139.834 190.601 140.389 190.701 140.878 190.9C141.367 191.099 141.782 191.384 142.12 191.755C142.465 192.126 142.726 192.575 142.903 193.102C143.086 193.629 143.177 194.221 143.177 194.877V195.983H136.045V194.28H140.523V194.07C140.528 193.78 140.477 193.533 140.37 193.328C140.267 193.124 140.117 192.968 139.918 192.86C139.719 192.753 139.477 192.699 139.192 192.699C138.896 192.699 138.651 192.763 138.458 192.893C138.269 193.022 138.121 193.199 138.014 193.425C137.912 193.646 137.839 193.901 137.796 194.192C137.753 194.482 137.731 194.789 137.731 195.111V195.418C137.731 195.741 137.774 196.034 137.86 196.297C137.952 196.561 138.081 196.787 138.248 196.975C138.42 197.158 138.624 197.3 138.861 197.403C139.103 197.505 139.377 197.556 139.684 197.556C140.055 197.556 140.421 197.486 140.781 197.346C141.142 197.206 141.451 196.975 141.709 196.652L142.943 198.121C142.766 198.374 142.513 198.618 142.185 198.855C141.862 199.092 141.475 199.285 141.023 199.436C140.571 199.581 140.066 199.654 139.506 199.654ZM148.51 199.654C147.8 199.654 147.166 199.543 146.606 199.323C146.047 199.097 145.574 198.788 145.186 198.395C144.804 198.002 144.511 197.551 144.307 197.04C144.108 196.529 144.008 195.988 144.008 195.418V195.111C144.008 194.471 144.097 193.88 144.275 193.336C144.452 192.788 144.716 192.309 145.065 191.9C145.415 191.491 145.853 191.174 146.38 190.948C146.908 190.717 147.521 190.601 148.22 190.601C148.839 190.601 149.393 190.701 149.882 190.9C150.372 191.099 150.786 191.384 151.125 191.755C151.469 192.126 151.73 192.575 151.907 193.102C152.09 193.629 152.182 194.221 152.182 194.877V195.983H145.049V194.28H149.527V194.07C149.532 193.78 149.481 193.533 149.374 193.328C149.272 193.124 149.121 192.968 148.922 192.86C148.723 192.753 148.481 192.699 148.196 192.699C147.9 192.699 147.655 192.763 147.462 192.893C147.273 193.022 147.125 193.199 147.018 193.425C146.916 193.646 146.843 193.901 146.8 194.192C146.757 194.482 146.735 194.789 146.735 195.111V195.418C146.735 195.741 146.779 196.034 146.865 196.297C146.956 196.561 147.085 196.787 147.252 196.975C147.424 197.158 147.628 197.3 147.865 197.403C148.107 197.505 148.381 197.556 148.688 197.556C149.059 197.556 149.425 197.486 149.785 197.346C150.146 197.206 150.455 196.975 150.713 196.652L151.948 198.121C151.77 198.374 151.517 198.618 151.189 198.855C150.866 199.092 150.479 199.285 150.027 199.436C149.575 199.581 149.07 199.654 148.51 199.654ZM156.03 192.925V199.492H153.311V190.763H155.853L156.03 192.925ZM158.612 190.698L158.563 193.223C158.456 193.213 158.311 193.199 158.128 193.183C157.945 193.167 157.792 193.159 157.668 193.159C157.351 193.159 157.076 193.196 156.845 193.272C156.619 193.342 156.431 193.449 156.28 193.594C156.135 193.734 156.027 193.912 155.957 194.127C155.893 194.342 155.863 194.592 155.869 194.877L155.377 194.555C155.377 193.968 155.433 193.436 155.546 192.957C155.664 192.473 155.831 192.056 156.046 191.707C156.261 191.352 156.522 191.08 156.829 190.892C157.135 190.698 157.48 190.601 157.862 190.601C157.996 190.601 158.128 190.609 158.257 190.625C158.391 190.642 158.51 190.666 158.612 190.698Z" fill="url(#paint2_linear_12_314)"/>
<defs>
<linearGradient id="paint0_linear_12_314" x1="212" y1="0" x2="212" y2="227" gradientUnits="userSpaceOnUse">
<stop stop-color="#545454"/>
<stop offset="1" stop-color="#393939"/>
</linearGradient>
<linearGradient id="paint1_linear_12_314" x1="16.2078" y1="179.83" x2="200.442" y2="179.83" gradientUnits="userSpaceOnUse">
<stop stop-color="white"/>
<stop offset="1" stop-color="white" stop-opacity="0.5"/>
</linearGradient>
<linearGradient id="paint2_linear_12_314" x1="16.9675" y1="199.854" x2="171.994" y2="199.854" gradientUnits="userSpaceOnUse">
<stop stop-color="#6EB2F1"/>
<stop offset="1" stop-color="white" stop-opacity="0.5"/>
</linearGradient>
</defs>
</svg>
