<svg width="240" height="307" viewBox="0 0 240 307" fill="none" xmlns="http://www.w3.org/2000/svg">
<rect width="240" height="307" rx="9.6" fill="#101010"/>
<path d="M39.2393 230.57V30.4301H126.906C141.564 30.4301 154.249 32.8731 164.961 37.7591C175.861 42.6452 184.223 49.5984 190.049 58.6188C195.875 67.4512 198.787 77.975 198.787 90.1901C198.787 99.3984 196.814 107.573 192.868 114.714C189.109 121.855 183.847 127.681 177.082 132.191C170.505 136.701 162.894 139.52 154.249 140.648L153.404 138.111C166.746 138.111 176.894 141.024 183.847 146.849C190.801 152.487 194.747 161.226 195.687 173.065L200.761 230.57H157.068L153.404 179.83C152.84 172.125 150.397 166.488 146.074 162.917C141.94 159.158 134.799 157.279 124.651 157.279H82.0861V230.57H39.2393ZM82.0861 121.48H122.114C132.45 121.48 140.437 119.131 146.074 114.432C151.9 109.546 154.813 102.687 154.813 93.8547C154.813 84.8343 151.9 78.069 146.074 73.5588C140.249 68.8607 131.792 66.5116 120.705 66.5116H82.0861V121.48Z" fill="white"/>
<path d="M39.2002 275.883V245.186H46.9453L47.2321 252.574L46.4289 252.23C46.8497 250.588 47.4807 249.195 48.3222 248.049C49.2019 246.904 50.2537 246.026 51.4776 245.415C52.7015 244.804 54.0401 244.499 55.4935 244.499C58.0561 244.499 60.1215 245.243 61.6896 246.732C63.296 248.221 64.3287 250.226 64.7876 252.746L63.6976 252.803C64.0418 251.008 64.6346 249.5 65.4761 248.279C66.3558 247.019 67.4267 246.083 68.6889 245.472C69.951 244.823 71.3662 244.499 72.9343 244.499C75.0761 244.499 76.912 244.938 78.4419 245.816C79.9718 246.694 81.1575 248.011 81.9989 249.768C82.8403 251.486 83.2611 253.605 83.2611 256.125V275.883H74.6554V258.53C74.6554 256.125 74.2921 254.33 73.5654 253.146C72.8387 251.925 71.653 251.314 70.0084 251.314C68.9757 251.314 68.096 251.6 67.3693 252.173C66.6426 252.746 66.0689 253.586 65.6482 254.693C65.2657 255.762 65.0745 257.079 65.0745 258.644V275.883H57.3294V258.644C57.3294 256.277 56.9852 254.464 56.2967 253.204C55.6083 251.944 54.4226 251.314 52.7397 251.314C51.7071 251.314 50.8082 251.6 50.0433 252.173C49.3166 252.746 48.762 253.586 48.3795 254.693C47.9971 255.8 47.8058 257.117 47.8058 258.644V275.883H39.2002Z" fill="white"/>
<path d="M103.954 276.57C100.818 276.57 98.0835 275.921 95.7504 274.623C93.4556 273.286 91.658 271.416 90.3576 269.01C89.0954 266.605 88.4643 263.78 88.4643 260.534C88.4643 257.289 89.0954 254.483 90.3576 252.116C91.658 249.71 93.4556 247.839 95.7504 246.503C98.0453 245.167 100.761 244.499 103.897 244.499C106.957 244.499 109.615 245.167 111.872 246.503C114.128 247.839 115.869 249.748 117.092 252.23C118.355 254.712 118.986 257.671 118.986 261.107V262.825H97.3568C97.4716 265.269 98.1218 267.082 99.3074 268.266C100.531 269.449 102.138 270.041 104.127 270.041C105.58 270.041 106.785 269.736 107.741 269.125C108.735 268.514 109.443 267.579 109.864 266.319L118.527 266.834C117.724 269.888 116.022 272.275 113.421 273.993C110.82 275.711 107.664 276.57 103.954 276.57ZM97.3568 257.556H110.151C110.036 255.304 109.405 253.624 108.257 252.516C107.148 251.409 105.695 250.856 103.897 250.856C102.099 250.856 100.608 251.447 99.4222 252.631C98.2748 253.776 97.5863 255.418 97.3568 257.556Z" fill="white"/>
<path d="M136.088 275.883C132.914 275.883 130.58 275.157 129.089 273.706C127.597 272.217 126.851 269.869 126.851 266.662V237.97H135.457V265.631C135.457 267.12 135.763 268.132 136.375 268.667C137.025 269.201 137.981 269.468 139.243 269.468H143.546V275.883H136.088ZM121.917 251.6V245.186H143.546V251.6H121.917Z" fill="white"/>
<path d="M149.18 275.883V245.186H157.326L157.613 254.12L156.982 253.948C157.479 250.856 158.359 248.622 159.621 247.248C160.883 245.873 162.624 245.186 164.842 245.186H167.653V252.287H164.842C163.236 252.287 161.916 252.497 160.883 252.917C159.851 253.337 159.067 254.006 158.531 254.922C158.034 255.838 157.785 257.079 157.785 258.644V275.883H149.18Z" fill="white"/>
<path d="M185.195 276.57C182.059 276.57 179.324 275.921 176.991 274.623C174.658 273.286 172.841 271.416 171.541 269.01C170.241 266.605 169.59 263.78 169.59 260.534C169.59 257.289 170.241 254.483 171.541 252.116C172.841 249.71 174.658 247.839 176.991 246.503C179.324 245.167 182.059 244.499 185.195 244.499C188.332 244.499 191.066 245.167 193.399 246.503C195.732 247.839 197.549 249.71 198.85 252.116C200.15 254.483 200.8 257.289 200.8 260.534C200.8 263.78 200.15 266.605 198.85 269.01C197.549 271.416 195.732 273.286 193.399 274.623C191.066 275.921 188.332 276.57 185.195 276.57ZM185.195 269.984C187.337 269.984 189.001 269.163 190.187 267.521C191.372 265.841 191.965 263.512 191.965 260.534C191.965 257.556 191.372 255.246 190.187 253.605C189.001 251.925 187.337 251.085 185.195 251.085C183.053 251.085 181.39 251.925 180.204 253.605C179.018 255.246 178.426 257.556 178.426 260.534C178.426 263.512 179.018 265.841 180.204 267.521C181.39 269.163 183.053 269.984 185.195 269.984Z" fill="white"/>
</svg>
