<svg width="432" height="66" viewBox="0 0 432 66" fill="none" xmlns="http://www.w3.org/2000/svg">
<g filter="url(#filter0_d_1_275)">
<mask id="path-1-inside-1_1_275" fill="white">
<path d="M4 0H428V46H4V0Z"/>
</mask>
<path d="M4 0H428V46H4V0Z" fill="#424242"/>
<path d="M428 46V54H436V46H428ZM4 46H-4V54H4V46ZM420 0V46H436V0H420ZM428 38H4V54H428V38ZM12 46V0H-4V46H12Z" fill="url(#paint0_linear_1_275)" mask="url(#path-1-inside-1_1_275)"/>
</g>
<path d="M273 66C271.895 66 271 65.1046 271 64L271 46L284 46L284 64C284 65.1046 283.105 66 282 66L273 66Z" fill="url(#paint1_linear_1_275)"/>
<path d="M314 66C312.895 66 312 65.1046 312 64L312 46L325 46L325 64C325 65.1046 324.105 66 323 66L314 66Z" fill="url(#paint2_linear_1_275)"/>
<path d="M232 66C230.895 66 230 65.1046 230 64L230 46L243 46L243 64C243 65.1046 242.105 66 241 66L232 66Z" fill="url(#paint3_linear_1_275)"/>
<path d="M191 66C189.895 66 189 65.1046 189 64L189 46L202 46L202 64C202 65.1046 201.105 66 200 66L191 66Z" fill="url(#paint4_linear_1_275)"/>
<path d="M150 66C148.895 66 148 65.1046 148 64L148 46L161 46L161 64C161 65.1046 160.105 66 159 66L150 66Z" fill="url(#paint5_linear_1_275)"/>
<path d="M109 66C107.895 66 107 65.1046 107 64L107 46L120 46L120 64C120 65.1046 119.105 66 118 66L109 66Z" fill="url(#paint6_linear_1_275)"/>
<path d="M68 66C66.8954 66 66 65.1046 66 64L66 46L79 46L79 64C79 65.1046 78.1046 66 77 66L68 66Z" fill="url(#paint7_linear_1_275)"/>
<path d="M355 66C353.895 66 353 65.1046 353 64L353 46L366 46L366 64C366 65.1046 365.105 66 364 66L355 66Z" fill="url(#paint8_linear_1_275)"/>
<defs>
<filter id="filter0_d_1_275" x="0" y="0" width="432" height="54" filterUnits="userSpaceOnUse" color-interpolation-filters="sRGB">
<feFlood flood-opacity="0" result="BackgroundImageFix"/>
<feColorMatrix in="SourceAlpha" type="matrix" values="0 0 0 0 0 0 0 0 0 0 0 0 0 0 0 0 0 0 127 0" result="hardAlpha"/>
<feOffset dy="4"/>
<feGaussianBlur stdDeviation="2"/>
<feComposite in2="hardAlpha" operator="out"/>
<feColorMatrix type="matrix" values="0 0 0 0 0 0 0 0 0 0 0 0 0 0 0 0 0 0 0.25 0"/>
<feBlend mode="normal" in2="BackgroundImageFix" result="effect1_dropShadow_1_275"/>
<feBlend mode="normal" in="SourceGraphic" in2="effect1_dropShadow_1_275" result="shape"/>
</filter>
<linearGradient id="paint0_linear_1_275" x1="216" y1="0" x2="216" y2="46" gradientUnits="userSpaceOnUse">
<stop stop-color="#545454"/>
<stop offset="1" stop-color="#393939"/>
</linearGradient>
<linearGradient id="paint1_linear_1_275" x1="278" y1="66" x2="278" y2="46" gradientUnits="userSpaceOnUse">
<stop stop-color="#C1C1C1"/>
<stop offset="0.510417" stop-color="#E4E4E4"/>
<stop offset="1" stop-color="#C1C1C1"/>
</linearGradient>
<linearGradient id="paint2_linear_1_275" x1="319" y1="66" x2="319" y2="46" gradientUnits="userSpaceOnUse">
<stop stop-color="#C1C1C1"/>
<stop offset="0.510417" stop-color="#E4E4E4"/>
<stop offset="1" stop-color="#C1C1C1"/>
</linearGradient>
<linearGradient id="paint3_linear_1_275" x1="237" y1="66" x2="237" y2="46" gradientUnits="userSpaceOnUse">
<stop stop-color="#C1C1C1"/>
<stop offset="0.510417" stop-color="#E4E4E4"/>
<stop offset="1" stop-color="#C1C1C1"/>
</linearGradient>
<linearGradient id="paint4_linear_1_275" x1="196" y1="66" x2="196" y2="46" gradientUnits="userSpaceOnUse">
<stop stop-color="#C1C1C1"/>
<stop offset="0.510417" stop-color="#E4E4E4"/>
<stop offset="1" stop-color="#C1C1C1"/>
</linearGradient>
<linearGradient id="paint5_linear_1_275" x1="155" y1="66" x2="155" y2="46" gradientUnits="userSpaceOnUse">
<stop stop-color="#C1C1C1"/>
<stop offset="0.510417" stop-color="#E4E4E4"/>
<stop offset="1" stop-color="#C1C1C1"/>
</linearGradient>
<linearGradient id="paint6_linear_1_275" x1="114" y1="66" x2="114" y2="46" gradientUnits="userSpaceOnUse">
<stop stop-color="#C1C1C1"/>
<stop offset="0.510417" stop-color="#E4E4E4"/>
<stop offset="1" stop-color="#C1C1C1"/>
</linearGradient>
<linearGradient id="paint7_linear_1_275" x1="73" y1="66" x2="73" y2="46" gradientUnits="userSpaceOnUse">
<stop stop-color="#C1C1C1"/>
<stop offset="0.510417" stop-color="#E4E4E4"/>
<stop offset="1" stop-color="#C1C1C1"/>
</linearGradient>
<linearGradient id="paint8_linear_1_275" x1="360" y1="66" x2="360" y2="46" gradientUnits="userSpaceOnUse">
<stop stop-color="#C1C1C1"/>
<stop offset="0.510417" stop-color="#E4E4E4"/>
<stop offset="1" stop-color="#C1C1C1"/>
</linearGradient>
</defs>
</svg>
