<?xml version="1.0" encoding="UTF-8"?>
<svg id="Layer_2" data-name="Layer 2" xmlns="http://www.w3.org/2000/svg" viewBox="0 0 433.15 378.6">
  <defs>
    <style>
      .cls-1 {
        fill: #efe9ff;
      }

      .cls-2 {
        fill: #836aff;
      }

      .cls-3 {
        fill: #b29fff;
      }
    </style>
  </defs>
  <path class="cls-2" d="m359.87,18.41l-103.63,259.89-12.74,31.96-6.41,16.06-20.85,52.28-20.84-52.28-6.41-16.06-12.74-31.96L72.71,18.63c-1.82-4.56.74-9.65,5.69-11.32L97.14.97c4.95-1.67,10.49.69,12.3,5.24l87.65,219.82,12.74,31.96,6.41,16.05,6.41-16.07,12.74-31.95L323.12,6c1.82-4.55,7.36-6.91,12.3-5.24l18.75,6.34c4.95,1.67,7.52,6.76,5.69,11.32Z"/>
  <path class="cls-3" d="m317.23,16.73l-87.41,220.17-13.45,33.87-13.44-33.87L115.61,16.96c-.86-4.27-8.44-16.96-1.7-16.96h14.33c6.74,0,9.16,4.09,11.07,8.92l77.06,194.11L293.53,8.69c1.91-4.83,4.94-8.69,10.84-8.69h15.17c5.9,0-.4,11.9-2.31,16.73Z"/>
  <path class="cls-1" d="m325.25,123.72c62.47-4.34,105.33-6.29,107.79,11.26,3.85,27.52-92.85,79.96-215.74,106.48C94.41,267.98,3.96,260.59.11,233.08c-2.81-20.09,47.61-44.95,123.01-69.34,0,0-111.94,54.83-62.3,56.71,26.36,1,79.81-3.64,150.96-26.36,83.76-26.74,129.39-41.61,133.39-53.51,4-11.9-19.56-17.02-19.56-17.02"/>
</svg>